<svg xmlns="http://www.w3.org/2000/svg" viewBox="0 0 96 30">
  <g fill="#fff">
    <path d="M0 6.6c1-.3 1.9-.6 2.7-.9.9-.2 1.8-.5 2.7-.7s1.9-.4 2.7-.6c.7-.1 1.3-.2 2-.2 1.2 0 1.9 0 2.3.1.5.1 1.1.3 1.5.5.6.2 1.1.6 1.5.9.4.4.7.9.9 1.4.1.2.1.4.1.7 0 .9-.5 2-1.5 3.3-1 1.3-2 2.5-3 3.5s-1.7 1.7-2.2 2.1l2.2 7.6-3.2 2.3-5.4-15.8-.2.2c-.1.2-.3.4-.5.6-.2.2-.4.4-.4.5 0 0-.1-.2-.2-.5s-.3-.8-.5-1.4C1.1 9.5.8 8.8.6 8.1S.1 6.8 0 6.6zM7.8 10l1 3.6c.5-.5 1.1-1.2 1.9-2.1.7-.9 1.1-1.5 1.1-1.9 0-.2-.1-.2-.2-.3-.4-.1-.7-.1-1.1-.1-1.1 0-2 .3-2.7.8zM25.5 12.8c.6.3 1 .7 1.4 1.2.4.5.6 1.1.8 1.8.2.6.2 1.3.2 2 0 .6 0 1.1-.1 1.7-.1.5-.2 1-.4 1.5s-.3.8-.6 1.1c-.5.8-1 1.4-1.6 2-.6.5-1.2 1-1.8 1.3-.6.3-1.2.6-1.8.7s-1.2.2-1.8.2c-.7 0-1.3-.1-1.9-.3-.6-.2-1.1-.5-1.6-.8-.7-.6-1.3-1.4-1.7-2.4-.4-1-.6-2.1-.6-3.2 0-1.9.6-3.5 1.7-4.7 1-1 1.9-1.8 3-2.3 1-.5 2.1-.8 3.1-.8.6 0 1.2.1 1.8.2.6.2 1.2.4 1.9.8zm-.7 2c-.1.6-.4 1.2-.9 1.6-.5.5-.9.7-1.3.7-.2 0-.4-.1-.6-.2-.2-.2-.4-.5-.4-1 0-.4.1-.7.4-1.1.2-.4.6-.6 1.2-.9-.5 0-1 .1-1.5.3-.5.2-.9.5-1.3.8s-.6.7-.8 1.1c-.2.4-.3.8-.3 1.2 0 .7.3 1.3 1 1.8.6.4 1.3.6 1.8.6.6 0 1.1-.2 1.5-.6.4-.4.8-.9 1-1.5.2-.6.3-1.2.3-1.8 0-.3 0-.7-.1-1z"/>
    <path d="M25.9 5.6L32 3.1l.9 14 5-2.8 5.2.8-6.8 5.2 6.4 4.9.3 4.8-9.5-6.8.3 5.9-5.7.1-1.1-21-1.8.4.7-3z"/>
    <path d="M51.6 19.2l2.9 3.5c-.2.7-.8 1.3-1.7 1.9-.9.6-1.9 1-3.1 1.3-1.2.3-2.4.5-3.6.5-1.1 0-2-.1-2.8-.4-.8-.3-1.5-.7-1.9-1.3-.8-1-1.2-2.2-1.2-3.8 0-1.2.2-2.4.7-3.6s.9-2 1.4-2.5c.6-.6 1.2-1 1.9-1.4.7-.4 1.4-.6 2.1-.8.7-.2 1.5-.3 2.3-.3 1 0 2 .2 2.9.5.9.3 1.7.8 2.4 1.4l-6.6 7.9c.6 0 1.1-.1 1.7-.4.5-.2 1-.6 1.5-1.1s.7-.8 1.1-1.4zm-3.4-2.9c-.4-.2-.8-.3-1.2-.3-.4 0-.9.1-1.3.3s-.7.4-.9.6c-.5.6-.7 1.4-.7 2.1 0 .3 0 .6.1.8.1.3.2.6.3 1.1l3.7-4.6z"/>
    <path d="M60.7 2.3l5-2.3.3 16.4c.1.4.1.9.1 1.4v1l.1 7.4-5.4.3v-.7c-.9.4-1.8.5-2.7.5-.7 0-1.3-.1-1.9-.3-.6-.2-1.1-.5-1.6-.8-.7-.6-1.3-1.4-1.7-2.4-.4-1-.6-2.1-.6-3.2 0-1.9.6-3.5 1.7-4.7 1-1 2-1.8 3-2.3s2.1-.8 3.1-.8h.7l-.1-9.5zm.1 11.7c-.4.1-.9.2-1.3.4s-.8.5-1.1.8c-.3.3-.5.6-.7 1-.2.4-.3.7-.3 1.1 0 .7.3 1.3 1 1.8.6.4 1.2.6 1.9.6h.5v-2.6c-.2 0-.4-.1-.6-.2-.2-.2-.4-.6-.4-1.1 0-.8.4-1.4 1-1.8z"/>
    <path d="M76.2 19.2l2.9 3.5c-.2.7-.8 1.3-1.7 1.9-.9.6-1.9 1-3.1 1.3-1.2.3-2.4.5-3.6.5-1.1 0-2-.1-2.8-.4s-1.5-.7-1.9-1.3c-.8-1-1.2-2.2-1.2-3.8 0-1.2.2-2.4.7-3.6.4-1.2.9-2 1.4-2.5.6-.6 1.2-1 1.9-1.4.7-.4 1.4-.6 2.1-.8.7-.2 1.5-.3 2.3-.3 1 0 2 .2 2.9.5.9.3 1.7.8 2.4 1.4l-6.6 7.9c.6 0 1.1-.1 1.7-.4.5-.2 1-.6 1.5-1.1s.8-.8 1.1-1.4zm-3.3-2.9c-.4-.2-.8-.3-1.2-.3-.4 0-.9.1-1.3.3-.4.2-.7.4-.9.6-.5.6-.7 1.4-.7 2.1 0 .3 0 .6.1.8.1.3.2.6.3 1.1l3.7-4.6z"/>
    <path d="M86.1 23.5l-2.9 3.8-6.2.2 6-8-6.8-8.8 6.6.3 3.3 4.4 3.3-4.4 6.6-.3-6.8 8.8 6 8-6.2-.2-2.9-3.8z"/>
  </g>
</svg>
